<svg width="198" height="203" viewBox="0 0 198 203" fill="none" xmlns="http://www.w3.org/2000/svg">
<path d="M162.578 27.801L26.3799 57.5415L57.1751 198.755L193.373 169.014L162.578 27.801Z" fill="white" stroke="#2A3693" stroke-width="8.27459" stroke-miterlimit="10" stroke-linecap="round" stroke-linejoin="round"/>
<path d="M152.313 47.2136L46.4721 70.3252L64.9134 154.889L170.754 131.777L152.313 47.2136Z" fill="white" stroke="#2A3693" stroke-width="8.27459" stroke-miterlimit="10" stroke-linecap="round" stroke-linejoin="round"/>
<g opacity="0.2">
<path d="M141.464 34.4119H159.099V165.504H56.6455L52.4465 144.496" fill="#1C1628"/>
<path d="M141.464 34.4119H159.099V165.504H56.6455L52.4465 144.496" stroke="#2A3693" stroke-width="8.27459" stroke-miterlimit="10" stroke-linecap="round" stroke-linejoin="round"/>
</g>
<path d="M147.763 5H5V147.857H147.763V5Z" fill="white" stroke="#2A3693" stroke-width="8.27459" stroke-miterlimit="10" stroke-linecap="round" stroke-linejoin="round"/>
<path d="M46.9888 42.8152V112.563" stroke="#6FEEF2" stroke-width="8.27459" stroke-miterlimit="10" stroke-linejoin="round"/>
<path d="M105.774 42.8152V112.563" stroke="#6FEEF2" stroke-width="8.27459" stroke-miterlimit="10" stroke-linejoin="round"/>
<path d="M21.7954 89.0337H129.288" stroke="#6FEEF2" stroke-width="8.27459" stroke-miterlimit="10" stroke-linecap="round" stroke-linejoin="round"/>
<path d="M130.967 72.2269C118.371 72.2269 105.774 51.2185 105.774 51.2185C105.774 51.2185 97.376 72.2269 76.3814 72.2269C55.3868 72.2269 46.989 51.2185 46.989 51.2185C46.989 51.2185 34.3922 72.2269 21.7955 72.2269" stroke="#6FEEF2" stroke-width="8.27459" stroke-miterlimit="10" stroke-linecap="round" stroke-linejoin="round"/>
<path d="M130.967 21.8066H21.7954V114.244H130.967V21.8066Z" stroke="#2A3693" stroke-width="8.27459" stroke-miterlimit="10" stroke-linecap="round" stroke-linejoin="round"/>
</svg>
