<svg width="193" height="193" viewBox="0 0 193 193" fill="none" xmlns="http://www.w3.org/2000/svg">
<path d="M178.735 14.1498H14.1434V178.85H178.735V14.1498Z" fill="white" stroke="#2A3693" stroke-width="8.27459" stroke-miterlimit="10" stroke-linecap="round" stroke-linejoin="round"/>
<path d="M187.879 169.7H169.591V188H187.879V169.7Z" fill="white" stroke="#2A3693" stroke-width="8.27459" stroke-miterlimit="10" stroke-linecap="round" stroke-linejoin="round"/>
<path d="M23.2879 169.7H4.99995V188H23.2879V169.7Z" fill="white" stroke="#2A3693" stroke-width="8.27459" stroke-miterlimit="10" stroke-linecap="round" stroke-linejoin="round"/>
<path d="M187.879 4.99999H169.591V23.3H187.879V4.99999Z" fill="white" stroke="#2A3693" stroke-width="8.27459" stroke-miterlimit="10" stroke-linecap="round" stroke-linejoin="round"/>
<path d="M23.2879 4.99999H4.99995V23.3H23.2879V4.99999Z" fill="white" stroke="#2A3693" stroke-width="8.27459" stroke-miterlimit="10" stroke-linecap="round" stroke-linejoin="round"/>
<path d="M81.8093 151.4H41.5759L62.6069 110.225L81.8093 151.4Z" fill="white" stroke="#6FEEF2" stroke-width="8.27459" stroke-miterlimit="10" stroke-linecap="round" stroke-linejoin="round"/>
<path d="M101.012 114.8H155.876" stroke="#2A3693" stroke-width="8.27459" stroke-miterlimit="10" stroke-linejoin="round"/>
<path d="M101.011 133.1H155.875" stroke="#2A3693" stroke-width="8.27459" stroke-miterlimit="10" stroke-linejoin="round"/>
<path d="M101.011 151.4H155.875" stroke="#2A3693" stroke-width="8.27459" stroke-miterlimit="10" stroke-linejoin="round"/>
<path d="M151.303 41.6001H110.155L110.155 82.7751H151.303V41.6001Z" fill="white" stroke="#6FEEF2" stroke-width="8.27459" stroke-miterlimit="10" stroke-linecap="round" stroke-linejoin="round"/>
<path d="M37.0039 41.6003H91.8676" stroke="#2A3693" stroke-width="8.27459" stroke-miterlimit="10" stroke-linejoin="round"/>
<path d="M37.0038 59.8999H91.8675" stroke="#2A3693" stroke-width="8.27459" stroke-miterlimit="10" stroke-linejoin="round"/>
<path d="M37.0038 78.2002H91.8675" stroke="#2A3693" stroke-width="8.27459" stroke-miterlimit="10" stroke-linejoin="round"/>
</svg>
