<svg width="191" height="210" viewBox="0 0 191 210" fill="none" xmlns="http://www.w3.org/2000/svg">
<path d="M161.199 7.52121H25.1539V170.547H161.199V7.52121Z" fill="white" stroke="#2A3693" stroke-width="8.27459" stroke-miterlimit="10" stroke-linecap="round" stroke-linejoin="round"/>
<path opacity="0.2" d="M162.04 7.52121H25.9947V170.547H162.04V7.52121Z" fill="#1C1628" stroke="#2A3693" stroke-width="8.27459" stroke-miterlimit="10" stroke-linecap="round" stroke-linejoin="round"/>
<path d="M145.244 4.99995H13.3977V173.067H145.244V4.99995Z" fill="white" stroke="#2A3693" stroke-width="8.27459" stroke-miterlimit="10" stroke-linecap="round" stroke-linejoin="round"/>
<path d="M26.8337 34.4131C28.6889 34.4131 30.1928 32.9082 30.1928 31.0518C30.1928 29.1954 28.6889 27.6905 26.8337 27.6905C24.9785 27.6905 23.4747 29.1954 23.4747 31.0518C23.4747 32.9082 24.9785 34.4131 26.8337 34.4131Z" fill="white" stroke="#2A3693" stroke-width="8.27459" stroke-miterlimit="10" stroke-linecap="round" stroke-linejoin="round"/>
<path d="M26.8344 30.211L4.99995 18.4463H13.3978" stroke="#2A3693" stroke-width="8.27459" stroke-miterlimit="10" stroke-linecap="round" stroke-linejoin="round"/>
<path d="M26.8337 65.5035C28.6889 65.5035 30.1928 63.9985 30.1928 62.1421C30.1928 60.2857 28.6889 58.7808 26.8337 58.7808C24.9785 58.7808 23.4747 60.2857 23.4747 62.1421C23.4747 63.9985 24.9785 65.5035 26.8337 65.5035Z" fill="white" stroke="#2A3693" stroke-width="8.27459" stroke-miterlimit="10" stroke-linecap="round" stroke-linejoin="round"/>
<path d="M26.8344 60.462L4.99995 48.6973H13.3978" stroke="#2A3693" stroke-width="8.27459" stroke-miterlimit="10" stroke-linecap="round" stroke-linejoin="round"/>
<path d="M26.8337 95.7564C28.6889 95.7564 30.1928 94.2515 30.1928 92.3951C30.1928 90.5386 28.6889 89.0336 26.8337 89.0336C24.9785 89.0336 23.4747 90.5386 23.4747 92.3951C23.4747 94.2515 24.9785 95.7564 26.8337 95.7564Z" fill="white" stroke="#2A3693" stroke-width="8.27459" stroke-miterlimit="10" stroke-linecap="round" stroke-linejoin="round"/>
<path d="M26.8344 91.5547L4.99995 80.6303H13.3978" stroke="#2A3693" stroke-width="8.27459" stroke-miterlimit="10" stroke-linecap="round" stroke-linejoin="round"/>
<path d="M26.8337 126.848C28.6889 126.848 30.1928 125.344 30.1928 123.487C30.1928 121.631 28.6889 120.126 26.8337 120.126C24.9785 120.126 23.4747 121.631 23.4747 123.487C23.4747 125.344 24.9785 126.848 26.8337 126.848Z" fill="white" stroke="#2A3693" stroke-width="8.27459" stroke-miterlimit="10" stroke-linecap="round" stroke-linejoin="round"/>
<path d="M26.8344 122.647L4.99995 111.722H13.3978" stroke="#2A3693" stroke-width="8.27459" stroke-miterlimit="10" stroke-linecap="round" stroke-linejoin="round"/>
<path d="M26.8337 157.941C28.6889 157.941 30.1928 156.436 30.1928 154.579C30.1928 152.723 28.6889 151.218 26.8337 151.218C24.9785 151.218 23.4747 152.723 23.4747 154.579C23.4747 156.436 24.9785 157.941 26.8337 157.941Z" fill="white" stroke="#2A3693" stroke-width="8.27459" stroke-miterlimit="10" stroke-linecap="round" stroke-linejoin="round"/>
<path d="M26.8344 154.579L4.99995 142.814H13.3978" stroke="#2A3693" stroke-width="8.27459" stroke-miterlimit="10" stroke-linecap="round" stroke-linejoin="round"/>
<path d="M94.0167 166.344L90.6576 193.235L94.0167 195.125L97.3758 196.596L118.37 177.268L119.21 175.588" fill="white"/>
<path d="M94.0167 166.344L90.6576 193.235L94.0167 195.125L97.3758 196.596L118.37 177.268L119.21 175.588" stroke="#2A3693" stroke-width="8.27459" stroke-miterlimit="10" stroke-linecap="round" stroke-linejoin="round"/>
<path d="M185.553 49.5381L176.315 66.3449L155.32 54.5802C155.32 54.5802 162.039 38.6137 164.558 38.6137C167.077 38.6137 167.077 38.6138 173.796 37.7735C180.514 36.9331 183.033 38.6138 183.033 39.4541C185.553 41.9751 187.232 46.1768 185.553 49.5381Z" fill="white" stroke="#2A3693" stroke-width="8.27459" stroke-miterlimit="10" stroke-linecap="round" stroke-linejoin="round"/>
<path d="M149.109 62.8268L172.751 75.6079L179.537 63.0393L155.894 50.2581L149.109 62.8268Z" fill="white" stroke="#2A3693" stroke-width="8.27459" stroke-miterlimit="10" stroke-linecap="round" stroke-linejoin="round"/>
<path d="M149.444 62.9844L172.118 75.5894L118.372 177.27L94.018 166.346L149.444 62.9844Z" fill="#2962FF" stroke="#2A3693" stroke-width="8.27459" stroke-miterlimit="10" stroke-linecap="round" stroke-linejoin="round"/>
<path d="M88.9783 205L90.6579 194.076C93.1773 194.076 95.6966 194.916 97.3762 197.437L88.9783 205Z" fill="#C1C7C4" stroke="#2A3693" stroke-width="8.27459" stroke-miterlimit="10" stroke-linecap="round" stroke-linejoin="round"/>
<path d="M52.8675 46.1766C57.9062 44.496 62.9449 41.1346 65.4642 36.9329C64.6244 42.8152 73.0222 47.017 78.9007 44.496C84.7792 41.975 88.1383 36.0925 89.8179 30.2102C88.1383 33.5715 88.9781 38.6135 92.3373 41.1346C94.8566 43.6556 99.8953 44.4959 103.254 42.8152C104.934 41.9749 105.774 41.1346 107.453 41.1346C109.133 41.1346 109.973 42.8153 111.652 43.6556C115.851 47.0169 123.409 47.0169 127.608 43.6556" stroke="#6FEEF2" stroke-width="8.27459" stroke-miterlimit="10" stroke-linecap="round" stroke-linejoin="round"/>
</svg>
